<?xml version="1.0" standalone="no"?>
<!DOCTYPE svg PUBLIC "-//W3C//DTD SVG 20010904//EN"
 "http://www.w3.org/TR/2001/REC-SVG-20010904/DTD/svg10.dtd">
<svg version="1.0" xmlns="http://www.w3.org/2000/svg"
 width="500.000000pt" height="500.000000pt" viewBox="0 0 500.000000 500.000000"
 preserveAspectRatio="xMidYMid meet">
<metadata>
Created by potrace 1.10, written by Peter Selinger 2001-2011
</metadata>
<g transform="translate(0.000000,500.000000) scale(0.100000,-0.100000)"
fill="#ffffff" stroke="none">
<path d="M0 2750 l0 -2250 2248 2 2247 3 3 2248 2 2247 -2250 0 -2250 0 0
-2250z m4278 11 c1 -1411 -1 -2018 -9 -2027 -8 -10 -398 -12 -2027 -11 l-2017
2 -3 2015 c-1 1108 0 2021 3 2028 3 10 414 12 2027 10 l2023 -3 3 -2014z"/>
<path d="M382 2755 l3 -1866 1853 -5 c1244 -4 1857 -3 1865 4 9 8 12 418 11
1869 l0 1858 -1867 3 -1867 2 2 -1865z m1719 1329 c113 -20 195 -49 291 -105
87 -51 203 -160 195 -183 -8 -20 -350 -425 -360 -425 -4 -1 -37 30 -73 68 -75
80 -130 111 -197 111 -37 0 -53 -6 -79 -29 l-33 -29 -3 -331 -3 -331 278 -2
278 -3 3 -262 2 -263 -610 0 -610 0 0 594 c0 674 3 711 69 850 63 133 151 221
284 285 134 64 378 87 568 55z m1219 -1784 l0 -900 -720 0 -720 0 0 275 0 275
380 0 380 0 0 625 0 625 340 0 340 0 0 -900z"/>
</g>
</svg>
